 <svg xmlns="http://www.w3.org/2000/svg" width="1920" height="355" viewBox="0 0 1920 355.813">
        <g id="Group_5" data-name="Group 5" transform="translate(1920 4135.93) rotate(180)">
          <path id="wave_1_" data-name="wave (1)" d="M0,264.508l80-20.051c80-20.051,240-60.152,400-46.743,160,12.908,320,80.579,480,113.538,160,33.46,320,33.46,480-13.284,160-47.245,320-139.98,400-187.224L1920,64V384.813H0Z" transform="translate(0 3716.117)" fill="#6c757d" opacity="0.148"/>
          <path id="wave_1_2" data-name="wave (1)" d="M0,252.706l80-18.871c80-18.871,240-56.612,400-43.992C640,201.991,800,265.68,960,296.7c160,31.49,320,31.49,480-12.5,160-44.464,320-131.74,400-176.2L1920,64V365.93H0Z" transform="translate(0 3770)" fill="#e9911a" opacity="0.995"/>
        </g>
      </svg>