<svg xmlns="http://www.w3.org/2000/svg" viewBox="0 0 506.54 307.97"><defs><style>.cls-1{fill:#e8911a;}.cls-2{fill:#fff;}</style></defs><g id="Layer_2" data-name="Layer 2"><g id="Layer_1-2" data-name="Layer 1"><path class="cls-1" d="M304.21,298.73a5.14,5.14,0,0,1-3.26-1.17l-4.18-1.91c-2.37-1.09-3.84-2.59-4.38-4.46a5.44,5.44,0,0,1,.27-3.67,9.17,9.17,0,0,0-2.61-7.21c-13.12-16.46-13.47-27.44-13.47-27.9C276.23,241.5,269,231,269,230.91a18.55,18.55,0,0,1,.46-21.64c6-5.59,2.93-11.28,2.79-11.52-1.31-1.42-2.47-5.28-2.69-6-.9-6.83-2.65-9.58-2.66-9.61C255,170,254.25,161.65,254.33,159.24c-.82-3.16-.59-5.69.66-7.53a5.72,5.72,0,0,1,1.15-1.23l-.62-3.69c-.4-2.54-4.26-2.85-4.3-2.85-11,.72-14.26-3.78-15.13-5.6-4-4.61-8.37-3.37-8.4-3.36-10.75,6.4-19.43,4.64-19.79,4.56a112,112,0,0,0-11.49,1.3c-11.45,4.85-22.73-6.63-23.21-7.12-4.86-5-10.82-10.65-10.82-10.65-9.48-8.69-12.13-18.17-12.24-18.57-1.48-3.47.75-7.16,2.28-9.12a6.87,6.87,0,0,1,.77-5.93c1.93-4.76,1.51-7,1.18-7.53a1.71,1.71,0,0,1-.64-1.11c-2.69-9.28,1.61-19.61,1.8-20.05a2.65,2.65,0,0,1,2.13-1.61,2.31,2.31,0,0,0,1.6-.7,4,4,0,0,0,0-2.72c-1.74-6.68,1.3-9.7,1.66-10l3.48-2.9c13.47-7.75,11.33-13.55,11.32-13.61a2.76,2.76,0,0,1,.74-3.15c6-5,13.37-15.38,13.44-15.49C192.22,6,202,8.11,208.62,10.16c9.14-8.42,30.39-8,34.25-7.91,3.72-.78,13-2.16,13.39-2.22a2.68,2.68,0,0,1,2.06.55c5.76,4.56,4,12.86,4,13.21a2.77,2.77,0,0,1-.29.77l-2.78,4.85a6,6,0,0,0,4.31,1.16c10.62-1.24,14.62,3.76,15.89,6.14l7.17,3.72c1.62.59,2.28.34,2.29.32l4.25-7.56c2-3.24,4.33-4.94,7.07-5.14,4.15-.2,7,3.07,7.3,3.45L311,25c5.68-.78,12.42,1.37,12.73,1.47,11.78,2.4,17.17-1.94,17.39-2.12a3,3,0,0,1,.91-.51c4.69-1.54,7.51-.29,9.05,1.05,4.28,3.7,3.05,11.6,2.9,12.5-.14,2.92-1.19,5.25-3.1,6.62a6.55,6.55,0,0,1-5.36.95l-.71-.08c1.43,6.43,7.31,12.66,10.06,15,10.61,5,11.82,13.31,10.67,18.65A16.48,16.48,0,0,1,374.06,91c8,3.64,16.72,11.62,20,14.81a91.85,91.85,0,0,1,21.61-7,2.66,2.66,0,0,1,2.32.75c6.32,6.32.64,15.71.39,16.11a2.38,2.38,0,0,1-.48.57C412.8,121,412.05,125.8,412,126c-3.78,17.05-17.14,21.53-19.87,22.27a42.13,42.13,0,0,0-7.77,5.94c-13.3,21.07-4.1,36.13-4,36.28a2.69,2.69,0,0,1,.38,1.88l-.77,4.48c3.53,6,4.34,11.6,2.38,16.55-3.19,8.09-12.72,11.48-15.09,12.21-6.63,5-5.13,10.28-5.06,10.5,1.83,12-2.85,15.23-4.5,16-3.79,2.5-4,4.16-4,4.18a48.28,48.28,0,0,1-3.41,15.57,2.73,2.73,0,0,1-1.06,1.24c-1,.59-3.51,4.41-5.42,8.17-4.45,8.25-20.38,11.76-22.18,12.13a47.21,47.21,0,0,0-12.39,3.19,8,8,0,0,1-5,2.15"/><rect class="cls-1" x="397.54" y="54.89" width="5.86" height="5.86"/><rect class="cls-1" x="364.55" y="26.78" width="5.86" height="5.86"/><rect class="cls-1" x="413.2" y="70.56" width="5.86" height="5.86"/><rect class="cls-1" x="417.29" y="59.66" width="5.86" height="5.86"/><rect class="cls-1" x="409.09" y="42.63" width="5.86" height="5.86"/><rect class="cls-1" x="427.68" y="80.64" width="5.86" height="5.86"/><rect class="cls-1" x="427.68" y="65.04" width="5.86" height="5.86"/><rect class="cls-1" x="432.47" y="38.96" width="5.86" height="5.86"/><rect class="cls-1" x="437.75" y="85.6" width="5.86" height="5.86"/><rect class="cls-1" x="458.77" y="110" width="5.86" height="5.86"/><rect class="cls-1" x="465.14" y="128.89" width="5.86" height="5.86"/><rect class="cls-1" x="471.38" y="140.75" width="5.86" height="5.86"/><rect class="cls-1" x="479.41" y="123.41" width="5.86" height="5.86"/><rect class="cls-1" x="478.27" y="136.44" width="5.86" height="5.86"/><rect class="cls-1" x="487.59" y="146.38" width="5.86" height="5.86"/><rect class="cls-1" x="465.92" y="159.91" width="5.86" height="5.86"/><rect class="cls-1" x="437.94" y="102.15" width="5.86" height="5.86"/><rect class="cls-1" x="433.55" y="116.7" width="5.86" height="5.86"/><rect class="cls-1" x="446.74" y="110.84" width="5.86" height="5.86"/><rect class="cls-1" x="454.2" y="133.51" width="5.86" height="5.86"/><rect class="cls-1" x="450.8" y="142.09" width="5.86" height="5.86"/><rect class="cls-1" x="457.13" y="166.64" width="5.86" height="5.86"/><rect class="cls-1" x="428.92" y="198.53" width="5.86" height="5.86"/><rect class="cls-1" x="436.34" y="220.49" width="5.86" height="5.86"/><rect class="cls-1" x="416.56" y="222.18" width="5.86" height="5.86"/><rect class="cls-1" x="411.55" y="250.15" width="5.86" height="5.86"/><rect class="cls-1" x="374.29" y="283.19" width="5.86" height="5.86"/><rect class="cls-1" x="392.4" y="270.94" width="5.86" height="5.86"/><rect class="cls-1" x="403.23" y="294.61" width="5.86" height="5.86"/><rect class="cls-1" x="384.85" y="301.33" width="5.86" height="5.86"/><rect class="cls-1" x="413.64" y="271.35" width="5.85" height="5.85"/><rect class="cls-1" x="392.4" y="224.02" width="5.86" height="5.86"/><rect class="cls-1" x="392.4" y="244.85" width="5.86" height="5.86"/><rect class="cls-1" x="372.02" y="269.8" width="5.86" height="5.86"/><rect class="cls-1" x="409.09" y="214.63" width="5.86" height="5.86"/><rect class="cls-1" x="422.79" y="259.6" width="5.86" height="5.86"/><rect class="cls-1" x="411.55" y="283.88" width="5.86" height="5.86"/><rect class="cls-1" x="411.55" y="203.6" width="5.86" height="5.86"/><rect class="cls-1" x="445.97" y="156.98" width="5.86" height="5.86"/><rect class="cls-1" x="429.45" y="176.35" width="5.86" height="5.86"/><rect class="cls-1" x="437.66" y="199.31" width="5.86" height="5.86"/><rect class="cls-1" x="450.8" y="221.09" width="5.86" height="5.86"/><rect class="cls-1" x="451.48" y="230.28" width="5.86" height="5.86"/><rect class="cls-1" x="428.92" y="217.57" width="5.86" height="5.86"/><rect class="cls-1" x="458.28" y="214.63" width="5.86" height="5.86"/><rect class="cls-1" x="433.55" y="216.29" width="5.86" height="5.86"/><rect class="cls-1" x="440.87" y="205.9" width="5.86" height="5.86"/><rect class="cls-1" x="458.77" y="196.37" width="5.86" height="5.86"/><rect class="cls-1" x="426.53" y="171.88" width="5.86" height="5.86"/><rect class="cls-1" x="409.09" y="176.95" width="5.86" height="5.86"/><rect class="cls-1" x="445.97" y="124.36" width="5.86" height="5.86"/><rect class="cls-1" x="437.75" y="134.63" width="5.86" height="5.86"/><rect class="cls-1" x="500.68" y="121.43" width="5.86" height="5.86"/><rect class="cls-1" x="404.96" y="159" width="5.86" height="5.85"/><rect class="cls-1" x="420.75" y="140.48" width="5.86" height="5.86"/><rect class="cls-1" x="440.87" y="139.15" width="5.86" height="5.86"/><rect class="cls-1" x="421.99" y="154.04" width="5.86" height="5.86"/><rect class="cls-1" x="404.11" y="165.23" width="5.86" height="5.86"/><rect class="cls-1" x="394.61" y="183.54" width="5.86" height="5.86"/><rect class="cls-1" x="430.62" y="158.58" width="5.86" height="5.86"/><rect class="cls-1" x="434.53" y="161.51" width="5.86" height="5.86"/><rect class="cls-1" x="369.22" y="49.7" width="5.86" height="5.86"/><rect class="cls-1" x="312.3" y="7.08" width="5.86" height="5.86"/><rect class="cls-1" x="376.7" y="43.75" width="3.71" height="3.71"/><rect class="cls-1" x="381.03" y="70.9" width="3.71" height="3.7"/><rect class="cls-1" x="328.17" y="12.94" width="3.7" height="3.7"/><rect class="cls-1" x="384.75" y="55.83" width="3.71" height="3.71"/><rect class="cls-1" x="322.73" y="8.16" width="3.71" height="3.71"/><rect class="cls-1" x="403.4" y="47.84" width="3.71" height="3.71"/><rect class="cls-1" x="404.11" y="40.61" width="3.71" height="3.71"/><rect class="cls-1" x="411.34" y="53.03" width="3.71" height="3.71"/><rect class="cls-1" x="421.83" y="40.77" width="3.71" height="3.71"/><rect class="cls-1" x="432.52" y="53.03" width="3.71" height="3.71"/><rect class="cls-1" x="426.85" y="71.63" width="3.71" height="3.71"/><rect class="cls-1" x="400.47" y="71.63" width="3.71" height="3.71"/><rect class="cls-1" x="439.01" y="93.71" width="3.71" height="3.71"/><rect class="cls-1" x="447.05" y="83.75" width="3.7" height="3.7"/><rect class="cls-1" x="454.41" y="104.78" width="3.71" height="3.71"/><rect class="cls-1" x="454.41" y="114.84" width="3.71" height="3.71"/><rect class="cls-1" x="418.32" y="145.87" width="3.71" height="3.71"/><rect class="cls-1" x="468.3" y="114.01" width="3.71" height="3.71"/><rect class="cls-1" x="427.68" y="132.77" width="3.71" height="3.71"/><rect class="cls-1" x="456.94" y="155.12" width="3.71" height="3.71"/><rect class="cls-1" x="465.14" y="147.73" width="3.71" height="3.71"/><rect class="cls-1" x="431.69" y="150.34" width="3.71" height="3.71"/><rect class="cls-1" x="402.26" y="164.79" width="3.71" height="3.71"/><rect class="cls-1" x="415.56" y="170.03" width="3.71" height="3.71"/><rect class="cls-1" x="406.04" y="198.72" width="3.71" height="3.71"/><rect class="cls-1" x="408.96" y="209.9" width="3.71" height="3.71"/><rect class="cls-1" x="422.02" y="150.34" width="3.71" height="3.71"/><rect class="cls-1" x="420.17" y="147.46" width="3.71" height="3.71"/><rect class="cls-1" x="462.08" y="119.77" width="3.71" height="3.71"/><rect class="cls-1" x="475.39" y="116.69" width="3.71" height="3.71"/><rect class="cls-1" x="486.82" y="131.11" width="3.71" height="3.7"/><rect class="cls-1" x="492.46" y="137.05" width="3.7" height="3.71"/><rect class="cls-1" x="494.31" y="129.97" width="3.71" height="3.71"/><rect class="cls-1" x="500.68" y="114.84" width="3.7" height="3.71"/><rect class="cls-1" x="480.49" y="150.34" width="3.71" height="3.71"/><rect class="cls-1" x="486.07" y="138.9" width="3.71" height="3.71"/><rect class="cls-1" x="463.29" y="156.98" width="3.71" height="3.71"/><rect class="cls-1" x="444.41" y="178.95" width="3.71" height="3.71"/><rect class="cls-1" x="407.24" y="182.81" width="3.71" height="3.71"/><rect class="cls-1" x="452.55" y="189.15" width="3.71" height="3.71"/><rect class="cls-1" x="450.7" y="200.58" width="3.71" height="3.71"/><rect class="cls-1" x="426.14" y="201.75" width="3.71" height="3.71"/><rect class="cls-1" x="460.23" y="206.97" width="3.71" height="3.71"/><rect class="cls-1" x="413.7" y="227.69" width="3.71" height="3.71"/><rect class="cls-1" x="437.6" y="238.29" width="3.71" height="3.71"/><rect class="cls-1" x="431.07" y="254.17" width="3.71" height="3.71"/><rect class="cls-1" x="432.92" y="272.02" width="3.71" height="3.71"/><rect class="cls-1" x="435.55" y="263.21" width="3.71" height="3.71"/><rect class="cls-1" x="404.09" y="273.87" width="3.71" height="3.71"/><rect class="cls-1" x="384.85" y="273.87" width="3.71" height="3.71"/><rect class="cls-1" x="393.77" y="304.26" width="3.71" height="3.71"/><rect class="cls-1" x="374.96" y="236.29" width="3.7" height="3.71"/><rect class="cls-1" x="374.96" y="259.74" width="3.7" height="3.71"/><rect class="cls-1" x="422.02" y="213.61" width="3.71" height="3.71"/><rect class="cls-1" x="444.89" y="229.54" width="3.71" height="3.71"/><rect class="cls-1" x="447.05" y="240.14" width="3.7" height="3.71"/><rect class="cls-1" x="410.82" y="233.2" width="3.71" height="3.71"/><rect class="cls-1" x="430.53" y="280.83" width="3.71" height="3.71"/><rect class="cls-1" x="404.31" y="259.6" width="3.71" height="3.71"/><rect class="cls-1" x="404.31" y="281.13" width="3.71" height="3.7"/><rect class="cls-1" x="381.15" y="291.12" width="3.71" height="3.71"/><rect class="cls-1" x="413.7" y="297.54" width="3.71" height="3.71"/><rect class="cls-1" x="410.82" y="211.75" width="3.71" height="3.71"/><rect class="cls-1" x="471.89" y="150.34" width="3.71" height="3.71"/><rect class="cls-1" x="395.69" y="46.8" width="3.71" height="3.7"/><rect class="cls-1" x="369.06" y="42.46" width="3.71" height="3.71"/><rect class="cls-1" x="361.43" y="41.89" width="3.71" height="3.71"/><rect class="cls-1" x="349.14" y="10.83" width="3.7" height="3.7"/><rect class="cls-1" x="415.45" y="48.09" width="3.7" height="3.71"/><rect class="cls-1" x="433.55" y="47.07" width="3.71" height="3.71"/><rect class="cls-1" x="424.99" y="69.78" width="3.71" height="3.71"/><rect class="cls-1" x="433.55" y="106.15" width="3.71" height="3.71"/><rect class="cls-1" x="405.25" y="60.73" width="3.71" height="3.71"/><rect class="cls-1" x="398.62" y="77.28" width="3.71" height="3.71"/><rect class="cls-1" x="424.99" y="85.6" width="3.71" height="3.7"/><rect class="cls-1" x="449.67" y="94.38" width="9.06" height="9.06"/><rect class="cls-1" x="469.22" y="122.76" width="9.06" height="9.06"/><rect class="cls-1" x="489.78" y="119.83" width="9.06" height="9.06"/><rect class="cls-1" x="437.45" y="163.63" width="9.06" height="9.06"/><rect class="cls-1" x="455.53" y="175.34" width="9.06" height="9.06"/><rect class="cls-1" x="446.26" y="207.23" width="9.06" height="9.06"/><rect class="cls-1" x="440.59" y="186.47" width="9.06" height="9.06"/><rect class="cls-1" x="459.4" y="223.16" width="9.06" height="9.07"/><rect class="cls-1" x="461.2" y="137.55" width="9.06" height="9.06"/><rect class="cls-1" x="424.92" y="180.81" width="9.06" height="9.06"/><rect class="cls-1" x="422.79" y="233.61" width="9.06" height="9.06"/><rect class="cls-1" x="388.56" y="285.72" width="9.06" height="9.06"/><rect class="cls-1" x="439.27" y="248.56" width="9.06" height="9.06"/><rect class="cls-1" x="420.4" y="286.11" width="9.06" height="9.06"/><rect class="cls-1" x="420.4" y="263.67" width="9.06" height="9.06"/><rect class="cls-1" x="420.89" y="48.1" width="9.06" height="9.06"/><rect class="cls-1" x="434.88" y="72.75" width="9.06" height="9.06"/><rect class="cls-1" x="385.4" y="35.25" width="9.06" height="9.06"/><rect class="cls-1" x="336.85" y="3.63" width="9.06" height="9.06"/><rect class="cls-1" y="209.26" width="243.11" height="71.09"/><path class="cls-1" d="M30.73,162.19a12.67,12.67,0,0,0-2.07-1.77,30.47,30.47,0,0,0-2.91-1.53c-1.08-.38-2.31-.76-3.53-1.06a17.14,17.14,0,0,0-4-.39c-3.53,0-6.22.62-7.83,2A6.59,6.59,0,0,0,7.81,165,6.09,6.09,0,0,0,8.5,168a6.38,6.38,0,0,0,2.3,2.14,16,16,0,0,0,3.76,1.53l5.37,1.38a46,46,0,0,1,6.5,1.77,19.83,19.83,0,0,1,4.91,2.52A9.52,9.52,0,0,1,34.48,181a12,12,0,0,1,1.07,5.28,12.19,12.19,0,0,1-1.3,5.67,11.59,11.59,0,0,1-3.6,4.07,13.8,13.8,0,0,1-5.28,2.29,25.45,25.45,0,0,1-6.6.76,31.85,31.85,0,0,1-10.11-1.6A29.35,29.35,0,0,1,0,192.54l2.83-4.91a17.19,17.19,0,0,0,2.68,2.23,22.11,22.11,0,0,0,3.76,2,26,26,0,0,0,4.52,1.39,22.59,22.59,0,0,0,5.13.61,14.3,14.3,0,0,0,7.66-1.76,6,6,0,0,0,2.69-5.29,6.49,6.49,0,0,0-.84-3.3,8.78,8.78,0,0,0-2.61-2.3,19.41,19.41,0,0,0-4.14-1.68c-1.69-.54-3.6-1-5.67-1.53a44.31,44.31,0,0,1-6.21-1.85,15.84,15.84,0,0,1-4.44-2.29,9.27,9.27,0,0,1-2.68-3.3,11.09,11.09,0,0,1-.92-4.67A14.3,14.3,0,0,1,3,160a12.4,12.4,0,0,1,3.45-4.21,14.45,14.45,0,0,1,5.29-2.69,25.66,25.66,0,0,1,6.59-.84,24.28,24.28,0,0,1,8.43,1.38,26,26,0,0,1,6.67,3.83m9.88,41.15V152.54H62.53a12.71,12.71,0,0,1,5.59,1.29,14.68,14.68,0,0,1,4.44,3.38,16.16,16.16,0,0,1,2.84,4.68,14.8,14.8,0,0,1,.07,10.88,14,14,0,0,1-2.75,4.75,12.29,12.29,0,0,1-4.3,3.29A12,12,0,0,1,62.91,182H49.12v16.55Zm5.83-21.69H62.6a7.21,7.21,0,0,0,3.22-.77,8,8,0,0,0,2.52-2.06A10.67,10.67,0,0,0,70,171a12.61,12.61,0,0,0,.61-3.77,10.23,10.23,0,0,0-.69-3.75A11.09,11.09,0,0,0,68,160.42a7.91,7.91,0,0,0-5.89-2.68h-13Zm65.74,16.47v5.22H83.59V152.54h30.66v5.2H89.42v14.95H111v4.83H89.42v15.85Zm39.54,0v5.22H123.13V152.54h30.74v5.2H129v14.95h21.54v4.83H129v15.85Zm5.44-18.15a24.33,24.33,0,0,1,1.45-8.28,21.63,21.63,0,0,1,4.3-7.36,19.62,19.62,0,0,1,6.89-5.28,20.13,20.13,0,0,1,9.28-2,19.84,19.84,0,0,1,10.57,2.75,17.14,17.14,0,0,1,6.51,7.28l-4.6,3a14.57,14.57,0,0,0-2.45-3.68,13.69,13.69,0,0,0-3.22-2.44,14.83,14.83,0,0,0-3.52-1.31,19.23,19.23,0,0,0-3.6-.38,14,14,0,0,0-6.75,1.61,16.26,16.26,0,0,0-5,4.13,19.72,19.72,0,0,0-3,5.83,20.55,20.55,0,0,0-1,6.44,20.89,20.89,0,0,0,1.15,6.89,19.85,19.85,0,0,0,3.37,5.83,16.83,16.83,0,0,0,5.06,4,13.5,13.5,0,0,0,6.36,1.54,16,16,0,0,0,3.75-.46,18.18,18.18,0,0,0,3.68-1.46,16,16,0,0,0,3.22-2.52,12.33,12.33,0,0,0,2.52-3.68l4.83,2.69a14,14,0,0,1-3.06,4.51,18.86,18.86,0,0,1-4.45,3.37,22,22,0,0,1-5.28,2.07,23,23,0,0,1-5.44.69,18.6,18.6,0,0,1-8.74-2.07,23.25,23.25,0,0,1-6.82-5.36,26.66,26.66,0,0,1-4.52-7.67,25.59,25.59,0,0,1-1.53-8.65m84.29-22.68v46.05h-5.91V177.67H212.86v20.92H207V152.54h5.83v19.92h25.36V152.54Z"/><path class="cls-2" d="M80.54,256.14a11.54,11.54,0,0,1-1.07,4.91,11.76,11.76,0,0,1-3,3.75,13.38,13.38,0,0,1-4.21,2.38A15.13,15.13,0,0,1,67,268H45.14V222H68.05A9.2,9.2,0,0,1,72.42,223a10.32,10.32,0,0,1,3.3,2.68,11.42,11.42,0,0,1,2.06,3.75,11.68,11.68,0,0,1,.77,4.22,12,12,0,0,1-1.69,6.36,10.35,10.35,0,0,1-4.9,4.37,11.61,11.61,0,0,1,6.21,4.29,12,12,0,0,1,2.37,7.43"/><path class="cls-1" d="M74.56,255.14a8.39,8.39,0,0,0-.53-3.06,9.08,9.08,0,0,0-1.45-2.53,7.31,7.31,0,0,0-2.23-1.76,6.34,6.34,0,0,0-2.91-.61H51V263H67a7.12,7.12,0,0,0,3-.61,7.89,7.89,0,0,0,2.46-1.77A7.46,7.46,0,0,0,74,258.14a8.34,8.34,0,0,0,.53-3"/><path class="cls-1" d="M51,227v15.4H65.68a6.85,6.85,0,0,0,2.83-.62,8.08,8.08,0,0,0,2.22-1.68,7.93,7.93,0,0,0,1.54-2.45,9.25,9.25,0,0,0,.53-2.92,8.11,8.11,0,0,0-.53-3.06,10.5,10.5,0,0,0-1.39-2.45,6.51,6.51,0,0,0-5-2.22"/><polyline class="cls-2" points="83.07 268.02 102 221.97 106.75 221.97 125.67 268.02 119.46 268.02 113.95 254.53 94.64 254.53 89.27 268.02"/><polyline class="cls-1" points="104.37 228.71 95.79 250.02 112.64 250.02"/><path class="cls-2" d="M158.39,231.62a10.31,10.31,0,0,0-2.14-1.76,21.93,21.93,0,0,0-2.91-1.54,31.69,31.69,0,0,0-3.53-1.06,16.53,16.53,0,0,0-4-.39c-3.6,0-6.2.62-7.89,2a6.69,6.69,0,0,0-2.44,5.51,6,6,0,0,0,.68,3.06,6,6,0,0,0,2.22,2.15,16.84,16.84,0,0,0,3.83,1.53c1.46.39,3.3.85,5.37,1.38a41.93,41.93,0,0,1,6.43,1.77,22.88,22.88,0,0,1,5,2.45,10,10,0,0,1,3.07,3.68,10.85,10.85,0,0,1,1.08,5.21,11.38,11.38,0,0,1-1.31,5.74,10.62,10.62,0,0,1-3.52,4.06,14,14,0,0,1-5.29,2.31,25.81,25.81,0,0,1-6.59.76,31.55,31.55,0,0,1-10.12-1.61,29.74,29.74,0,0,1-8.66-4.9l2.77-4.91a14.24,14.24,0,0,0,2.76,2.23,23.31,23.31,0,0,0,3.75,2,24.89,24.89,0,0,0,4.52,1.39,22.45,22.45,0,0,0,5,.61c3.3,0,5.9-.61,7.67-1.76a5.91,5.91,0,0,0,2.75-5.29,5.74,5.74,0,0,0-.92-3.3,7.44,7.44,0,0,0-2.53-2.3,21.15,21.15,0,0,0-4.2-1.69c-1.61-.53-3.53-1-5.68-1.52a47.1,47.1,0,0,1-6.13-1.84,15,15,0,0,1-4.44-2.3,8.42,8.42,0,0,1-2.68-3.3,11.05,11.05,0,0,1-.92-4.67,13.13,13.13,0,0,1,1.22-5.9,12.53,12.53,0,0,1,3.45-4.22,14.8,14.8,0,0,1,5.21-2.68,26.77,26.77,0,0,1,6.67-.84,24.64,24.64,0,0,1,8.43,1.38,25.77,25.77,0,0,1,6.66,3.83"/><polyline class="cls-2" points="202.22 262.81 202.22 268.02 170.96 268.02 170.96 221.97 201.61 221.97 201.61 227.18 176.78 227.18 176.78 242.12 198.39 242.12 198.39 246.95 176.78 246.95 176.78 262.81"/></g></g></svg>