<svg height="512" viewBox="0 0 51 56" width="512" xmlns="http://www.w3.org/2000/svg"><g id="Page-1" fill="none" fill-rule="evenodd"><g id="036---Brain-Wired" fill="rgb(0,0,0)" fill-rule="nonzero" transform="translate(0 -1)"><path id="Shape" d="m46.151 31.722c1.974-2.666 3.838-5.185 3.9-9.694.0571858-2.6726149-.2684494-5.3396574-.967-7.92-.8822422-3.0330264-2.7349322-5.69297489-5.274-7.572-6.492-5.107-12.174-7.151-25.217-4.136-3.182.734-6.448 1.754-8.785 4.227-1.5781603 1.68956577-2.79588178 3.6826958-3.579 5.858-.34082824.9915644-.61904257 2.0035566-.833 3.03l-.081.349c-.24656773.9327015-.58141312 1.8397976-1 2.709-.32123498.5963744-.54665684 1.2395691-.668 1.906.043.308.423.658.827 1.028.82593667.5825488 1.35886015 1.4944644 1.461 2.5-.01924366.4903487-.1597698.968275-.409 1.391-.05874135.107824-.1095427.2197875-.152.335-.19658897 1.5860016-.86316789 3.0769235-1.914 4.281-1.183 1.275-3.383 3.648-3.4 4.226.20563452.1978838.426663.3791205.661.542.2413039.1604909.49397172.3032014.756.427.853.437 2.022 1.034 2.255 2.261.14397567.7548796.04998079 1.5358408-.269 2.235-.169.358-.345.672-.5.943-.053.093-.11.2-.161.29.41.328.98.757 1.22.935.21621214.1606156.3584916.4016584.39463124.6685647.03613964.2669064-.03691656.5371061-.20263124.7494353-.1482501.193932-.2765659.4023196-.383.622.071.042.143.082.215.123.88133706.3826771 1.55258782 1.1298496 1.839 2.047.15608611.6858411.12953589 1.4006282-.077 2.073-.2475559.8044453-.21226622 1.6693952.1 2.451.21004477.9289889 1.11995664 1.523199 2.055 1.342 2.9000159-.7095847 5.7595264-1.5755164 8.566-2.594h.008c.971-.333 1.858-.645 2.575-.9.766-.269 1.344-.472 1.636-.564 4.146-1.3 4.986-2.807 4.962-3.838-.012854-.5519603.4240455-1.009899.976-1.023.267295-.0140323.5285659.0826668.7223189.2673375.193753.1846708.3028744.4410021.3016811.7086625.059 2.5-2.081 4.446-6.359 5.792-.28.088-.837.284-1.576.544l-.747.262c1.5094132 1.628675 2.6316454 3.5771134 3.283 5.7.1370487.4102592.5194716.6882389.952.692h20.167c.3437975-.0003138.663329-.1772117.8460887-.4684088.1827596-.2911971.2031196-.6558595.0539113-.9655912-1.3551788-2.98479-2.2002306-6.1757054-2.5-9.44-.3959743-3.3445599.1066072-6.7342237 1.456-9.82.7770507-1.6310191 1.738312-3.167695 2.865-4.58zm-5.151.278c-1.4977112.004352-2.8715877-.8308162-3.5571995-2.162392s-.5673502-2.9350273.3061995-4.151608c-.7206008-.7391952-1.7777666-1.0433062-2.781-.8-.376.889-.82 1.8-1.266 2.69-1.835 3.665-2.9 6.177-1.076 7.64 5.348 4.284 4.414 18.262 4.374 18.855-.0373235.5243803-.4742948.9303266-1 .929h-.072c-.2652897-.0184295-.512313-.1417675-.6864567-.3427458-.1741436-.2009783-.2610636-.4630425-.2415433-.7282542.266-3.75.133-14.139-3.628-17.148-3.223-2.584-1.225-6.575.539-10.1.517-1.032 1-2.007 1.376-2.943.679-1.7.78-2.846.32-3.621-.0864122-.151164-.1926913-.2900668-.316-.413-.6700465-.5973453-1.4475041-1.0619195-2.291-1.369l-.016-.008-.017-.008c-.0324391-.0140543-.0641463-.029741-.095-.047-1.3475531-.5310275-2.7344119-.9563131-4.148-1.272-.2543079.090005-.5013613.1993237-.739.327-1.2309798.7324392-2.2961963 1.7128606-3.128 2.879 1.3269378 1.3611646 1.5106578 3.4689443.4392272 5.0391575s-3.101084 2.1677036-4.852378 1.4284455c-1.7512939-.7392581-2.7388887-2.6103927-2.3610843-4.4734002.3778043-1.8630075 2.0163061-3.2015889 3.9172351-3.2002028.3828472.0055211.762844.0668326 1.128.182.7553233-1.0442485 1.6499507-1.9802595 2.659-2.782l-.16-.03c-2.865-.52-5.734-.856-7.864-1.06-.6638212 1.8935441-2.6317072 2.9984649-4.5939933 2.5794171-1.96228607-.4190478-3.30718263-2.2314161-3.13963597-4.23094s1.79529986-3.5628041 3.79995957-3.6494485c2.0046597-.0866444 3.7612253 1.3303604 4.1006697 3.3079714 1.5.144 3.367.353 5.345.643-.3636935-.6341584-.6491118-1.3100961-.85-2.013-1.9833045-.2953609-3.4388915-2.01742285-3.3998135-4.02221907.0390779-2.00479622 1.5606673-3.66882636 3.5539754-3.88667424 1.9933082-.21784789 3.8384075 1.07823813 4.3095975 3.02726736.47119 1.94902924-.5780714 3.94484505-2.4507594 4.66162595.3621936 1.0549167.994944 1.9962839 1.835 2.73.823.149 1.7.325 2.618.532 1.0173333.2326667 1.9506667.482 2.8.748-.2993321-1.7786166-.2312673-3.5996904.2-5.351-1.6794049-1.05914485-2.3222861-3.19341111-1.5072753-5.003921.8150109-1.81050989 2.838984-2.74427719 4.7453319-2.18927595 1.9063479.55500125 3.1128125 2.42925632 2.8286317 4.3943085-.2841808 1.96505217-1.9722091 3.42071315-3.9576883 3.41288845-.068 0-.132-.017-.2-.02-.388 1.842-.541 4.047.306 5.659.7364108.311089 1.4321986.7106969 2.072 1.19.7214055-1.4638514 1.7281251-2.768745 2.961-3.838-.088074-.3231221-.1347805-.6561162-.139-.991-.008474-1.9242667 1.3485345-3.58439578 3.2360301-3.95887521 1.8874955-.37447944 3.7755111.64183626 4.5023116 2.42358691.7268004 1.7817507.0883162 3.8286602-1.52258 4.8812226s-3.7419006.8152414-5.0817617-.5659343c-1.1197674 1.0752848-1.9964043 2.3777947-2.571 3.82.3798835 1.0236881.4264347 2.1412657.133 3.193 1.3556723.0844087 2.6361489.6520902 3.609 1.6.5287654-.2553589 1.1078121-.3896158 1.695-.393 2.209139 0 4 1.790861 4 4s-1.790861 4-4 4z"/></g></g></svg>