<svg xmlns="http://www.w3.org/2000/svg" width="826" height="928" viewBox="0 0 826 928">
  <g id="Page-1" transform="translate(-0.06 0.006)">
    <g id="_036---Brain-Wired" data-name="036---Brain-Wired" transform="translate(0.06 -0.006)">
      <path id="Shape" d="M761.523,510.181c32.612-44.178,63.407-85.92,64.431-160.638A465.565,465.565,0,0,0,809.978,218.3,239.219,239.219,0,0,0,722.847,92.826C615.594,8.2,521.722-25.673,306.241,24.289,253.672,36.452,199.715,53.354,161.105,94.334a282.438,282.438,0,0,0-59.128,97.072,415.944,415.944,0,0,0-13.762,50.21L86.877,247.4A252.246,252.246,0,0,1,70.356,292.29,107.247,107.247,0,0,0,59.32,323.874c.71,5.1,6.988,10.9,13.663,17.035A57.883,57.883,0,0,1,97.12,382.336a49.292,49.292,0,0,1-6.757,23.05,41.922,41.922,0,0,0-2.511,5.551,132.907,132.907,0,0,1-31.621,70.94C36.687,503.006.341,542.329.06,551.906a89.092,89.092,0,0,0,10.92,8.982,98.564,98.564,0,0,0,12.49,7.076c14.092,7.241,33.405,17.134,37.255,37.467a61.648,61.648,0,0,1-4.444,37.036c-2.792,5.932-5.7,11.136-8.26,15.626-.876,1.541-1.817,3.314-2.66,4.806,6.774,5.435,16.19,12.544,20.155,15.494a16.6,16.6,0,0,1,3.172,23.5A60.2,60.2,0,0,0,62.36,712.2c1.173.7,2.362,1.359,3.552,2.038a54.725,54.725,0,0,1,30.382,33.921,66.826,66.826,0,0,1-1.272,34.351,61.237,61.237,0,0,0,1.652,40.615,29.127,29.127,0,0,0,33.95,22.238,1364.68,1364.68,0,0,0,141.518-42.985h.132c16.042-5.518,30.7-10.688,42.541-14.914,12.655-4.458,22.2-7.822,27.028-9.346,68.5-21.542,82.373-46.515,81.976-63.6a16.549,16.549,0,0,1,16.124-16.952,16.1,16.1,0,0,1,16.917,16.173c.975,41.427-34.38,73.674-105.056,95.979-4.626,1.458-13.828,4.706-26.037,9.015l-12.341,4.342a244.613,244.613,0,0,1,54.238,94.454,16.741,16.741,0,0,0,15.728,11.467H716.569a16.568,16.568,0,0,0,14.869-23.763,487.025,487.025,0,0,1-41.3-156.429A314.86,314.86,0,0,1,714.19,586.076a392.345,392.345,0,0,1,47.332-75.895Zm-85.1,4.607a66.1,66.1,0,0,1-53.709-104.629A48.178,48.178,0,0,0,576.77,396.9c-6.212,14.732-13.547,29.828-20.915,44.576-30.316,60.732-47.91,102.358-17.776,126.6C626.432,639.07,611,870.7,610.34,880.524a16.541,16.541,0,0,1-16.521,15.394H592.63A16.554,16.554,0,0,1,577.3,878.171c4.395-62.141,2.2-234.3-59.938-284.158-53.247-42.819-20.238-108.954,8.9-167.366,8.541-17.1,16.521-33.258,22.733-48.768,11.218-28.171,12.886-47.161,5.287-60a32.285,32.285,0,0,0-5.221-6.844,116.98,116.98,0,0,0-37.849-22.686l-.264-.133-.281-.133a17.31,17.31,0,0,1-1.569-.779,459.893,459.893,0,0,0-68.529-21.078,87.3,87.3,0,0,0-12.209,5.419,170.873,170.873,0,0,0-51.677,47.708,65.911,65.911,0,1,1-47.2-19.984,64.9,64.9,0,0,1,18.636,3.016,233.86,233.86,0,0,1,43.929-46.1l-2.643-.5c-47.332-8.617-94.731-14.185-129.92-17.565a66.058,66.058,0,1,1,2.759-33.026c24.781,2.386,55.626,5.85,88.3,10.655a150.031,150.031,0,0,1-14.043-33.357,65.953,65.953,0,1,1,33.257-3.645,105.608,105.608,0,0,0,30.316,45.239c13.6,2.469,28.085,5.386,43.252,8.816q25.211,5.783,46.258,12.4a219.548,219.548,0,0,1,3.3-88.671A65.739,65.739,0,1,1,527.736,166.8c-1.123,0-2.181-.282-3.3-.331-6.41,30.524-8.938,67.063,5.055,93.775a162.557,162.557,0,0,1,34.231,19.719,202.855,202.855,0,0,1,48.918-63.6,65.774,65.774,0,0,1-2.3-16.422,66.4,66.4,0,1,1,18.735,46.067,180.29,180.29,0,0,0-42.475,63.3,86.051,86.051,0,0,1,2.2,52.911,93.657,93.657,0,0,1,59.624,26.513,65.1,65.1,0,0,1,28-6.512,66.284,66.284,0,0,1,0,132.567Z" transform="translate(-0.06 -0.994)" fill="#e99119"/>
    </g>
  </g>
</svg>
