<?xml version="1.0" encoding="utf-8"?>
<!-- Generator: Adobe Illustrator 25.0.0, SVG Export Plug-In . SVG Version: 6.00 Build 0)  -->
<svg version="1.1" id="_x31__x2C_5" xmlns="http://www.w3.org/2000/svg" xmlns:xlink="http://www.w3.org/1999/xlink" x="0px"
	 y="0px" viewBox="0 0 512 512" style="enable-background:new 0 0 512 512;" xml:space="preserve">
<g>
	<path d="M437.3,512H80c-44.1,0-80-35.9-80-80V58.7C0,26.3,26.3,0,58.7,0h266.7C357.7,0,384,26.3,384,58.7V64h69.3
		c32.4,0,58.7,26.3,58.7,58.7V432c0,40.9-30.8,74.7-70.4,79.4C440.2,511.8,438.8,512,437.3,512z M384,96v336c0,26.5,21.5,48,48,48
		c26.5,0,48-21.5,48-48V122.7C480,108,468,96,453.3,96H384z M58.7,32C44,32,32,44,32,58.7V432c0,26.5,21.5,48,48,48h288
		c-10.1-13.4-16-30-16-48V58.7C352,44,340,32,325.3,32H58.7z"/>
	<path d="M176,192H80c-8.8,0-16-7.2-16-16V80c0-8.8,7.2-16,16-16h96c8.8,0,16,7.2,16,16v96C192,184.8,184.8,192,176,192z M96,160h64
		V96H96V160z"/>
	<path d="M304,117.3h-53.3c-8.8,0-16-7.2-16-16s7.2-16,16-16H304c8.8,0,16,7.2,16,16S312.8,117.3,304,117.3z"/>
	<path d="M304,181.3h-53.3c-8.8,0-16-7.2-16-16c0-8.8,7.2-16,16-16H304c8.8,0,16,7.2,16,16C320,174.2,312.8,181.3,304,181.3z"/>
	<path d="M304,266.7H80c-8.8,0-16-7.2-16-16c0-8.8,7.2-16,16-16h224c8.8,0,16,7.2,16,16C320,259.5,312.8,266.7,304,266.7z"/>
	<path d="M304,346.7H80c-8.8,0-16-7.2-16-16s7.2-16,16-16h224c8.8,0,16,7.2,16,16S312.8,346.7,304,346.7z"/>
	<path d="M304,426.7H80c-8.8,0-16-7.2-16-16s7.2-16,16-16h224c8.8,0,16,7.2,16,16S312.8,426.7,304,426.7z"/>
</g>
</svg>
